<svg xmlns="http://www.w3.org/2000/svg" width="394" height="250" viewBox="0 0 394 250"><g transform="translate(-683 -302)"><path d="M10,0,20,61H0Z" transform="translate(818 416) rotate(180)" fill="#7e7e7e"/><path d="M10,0,20,61H0Z" transform="translate(818 437) rotate(-90)" fill="#7e7e7e"/><path d="M10,0,20,61H0Z" transform="translate(798 438)" fill="#7e7e7e"/><path d="M10,0,20,61H0Z" transform="translate(798 417) rotate(90)" fill="#7e7e7e"/><path d="M10,0,20,61H0Z" transform="translate(803.728 442.224) rotate(-30)" fill="#7e7e7e"/><path d="M10,0,20,61H0Z" transform="translate(793.728 423.728) rotate(60)" fill="#7e7e7e"/><path d="M10,0,20,61H0Z" transform="translate(811.496 441.048) rotate(-60)" fill="#7e7e7e"/><path d="M10,0,20,61H0Z" transform="translate(811.496 413.728) rotate(150)" fill="#7e7e7e"/><path d="M10,0,20,61H0Z" transform="translate(803.728 414.904) rotate(120)" fill="#7e7e7e"/><path d="M10,0,20,61H0Z" transform="translate(821.496 432.224) rotate(-120)" fill="#7e7e7e"/><path d="M10,0,20,61H0Z" transform="translate(821.048 423.728) rotate(-150)" fill="#7e7e7e"/><path d="M10,0,20,61H0Z" transform="translate(794.176 432.224) rotate(30)" fill="#7e7e7e"/><path d="M125,5a120.914,120.914,0,0,0-24.189,2.438,119.316,119.316,0,0,0-42.9,18.053,120.365,120.365,0,0,0-43.482,52.8,119.359,119.359,0,0,0-6.99,22.518,121.219,121.219,0,0,0,0,48.379,119.316,119.316,0,0,0,18.053,42.9,120.365,120.365,0,0,0,52.8,43.482,119.359,119.359,0,0,0,22.518,6.99,121.219,121.219,0,0,0,48.379,0,119.316,119.316,0,0,0,42.9-18.053,120.365,120.365,0,0,0,43.482-52.8,119.36,119.36,0,0,0,6.99-22.518,121.219,121.219,0,0,0,0-48.379,119.316,119.316,0,0,0-18.053-42.9,120.365,120.365,0,0,0-52.8-43.482,119.36,119.36,0,0,0-22.518-6.99A120.914,120.914,0,0,0,125,5m0-5A125,125,0,1,1,0,125,125,125,0,0,1,125,0Z" transform="translate(683 302)" fill="#b2b2b2"/><path d="M75,5A69.65,69.65,0,0,0,35.866,16.952,70.219,70.219,0,0,0,10.5,47.754a69.9,69.9,0,0,0,6.453,66.38,70.219,70.219,0,0,0,30.8,25.367,69.9,69.9,0,0,0,66.38-6.453,70.219,70.219,0,0,0,25.367-30.8,69.9,69.9,0,0,0-6.453-66.38,70.219,70.219,0,0,0-30.8-25.367A69.557,69.557,0,0,0,75,5m0-5A75,75,0,1,1,0,75,75,75,0,0,1,75,0Z" transform="translate(733 352)" fill="#b2b2b2"/><path d="M15,5A10,10,0,1,0,25,15,10.011,10.011,0,0,0,15,5m0-5A15,15,0,1,1,0,15,15,15,0,0,1,15,0Z" transform="translate(793 412)" fill="#b2b2b2"/><path d="M188.5,2.5H0A2.5,2.5,0,0,1-2.5,0,2.5,2.5,0,0,1,0-2.5H188.5A2.5,2.5,0,0,1,191,0,2.5,2.5,0,0,1,188.5,2.5Z" transform="translate(806 304.5)" fill="#b2b2b2"/><path d="M65,2.5H0A2.5,2.5,0,0,1-2.5,0,2.5,2.5,0,0,1,0-2.5H65A2.5,2.5,0,0,1,67.5,0,2.5,2.5,0,0,1,65,2.5Z" transform="translate(929 408.314)" fill="#b2b2b2"/><circle cx="7.5" cy="7.5" r="7.5" transform="translate(801 323)" fill="#69617b"/><circle cx="7.5" cy="7.5" r="7.5" transform="translate(804 513)" fill="#69617b"/><circle cx="7.5" cy="7.5" r="7.5" transform="translate(897 420)" fill="#69617b"/><circle cx="7.5" cy="7.5" r="7.5" transform="translate(704 420)" fill="#69617b"/><circle cx="7.5" cy="7.5" r="7.5" transform="translate(730 353)" fill="#69617b"/><circle cx="7.5" cy="7.5" r="7.5" transform="translate(872 488)" fill="#69617b"/><circle cx="7.5" cy="7.5" r="7.5" transform="translate(733 492)" fill="#69617b"/><circle cx="7.5" cy="7.5" r="7.5" transform="translate(876 353)" fill="#69617b"/><text transform="translate(925 372)" fill="#69617b" font-size="46" font-family="Ubuntu-Regular, Ubuntu"><tspan x="0" y="0">TURBO</tspan></text></g></svg>