<svg xmlns="http://www.w3.org/2000/svg" width="394" height="250" viewBox="0 0 394 250"><g transform="translate(-622 -290)"><path d="M125,5a120.914,120.914,0,0,0-24.189,2.438,119.316,119.316,0,0,0-42.9,18.053,120.365,120.365,0,0,0-43.482,52.8,119.359,119.359,0,0,0-6.99,22.518,121.219,121.219,0,0,0,0,48.379,119.316,119.316,0,0,0,18.053,42.9,120.365,120.365,0,0,0,52.8,43.482,119.359,119.359,0,0,0,22.518,6.99,121.219,121.219,0,0,0,48.379,0,119.316,119.316,0,0,0,42.9-18.053,120.365,120.365,0,0,0,43.482-52.8,119.36,119.36,0,0,0,6.99-22.518,121.219,121.219,0,0,0,0-48.379,119.316,119.316,0,0,0-18.053-42.9,120.365,120.365,0,0,0-52.8-43.482,119.36,119.36,0,0,0-22.518-6.99A120.914,120.914,0,0,0,125,5m0-5A125,125,0,1,1,0,125,125,125,0,0,1,125,0Z" transform="translate(622 290)"/><path d="M75,5A69.65,69.65,0,0,0,35.866,16.952,70.219,70.219,0,0,0,10.5,47.754a69.9,69.9,0,0,0,6.453,66.38,70.219,70.219,0,0,0,30.8,25.367,69.9,69.9,0,0,0,66.38-6.453,70.219,70.219,0,0,0,25.367-30.8,69.9,69.9,0,0,0-6.453-66.38,70.219,70.219,0,0,0-30.8-25.367A69.557,69.557,0,0,0,75,5m0-5A75,75,0,1,1,0,75,75,75,0,0,1,75,0Z" transform="translate(672 340)"/><path d="M10,0,20,61H0Z" transform="translate(757 404) rotate(180)"/><path d="M15,5A10,10,0,1,0,25,15,10.011,10.011,0,0,0,15,5m0-5A15,15,0,1,1,0,15,15,15,0,0,1,15,0Z" transform="translate(732 400)"/><path d="M10,0,20,61H0Z" transform="translate(757 425) rotate(-90)"/><path d="M10,0,20,61H0Z" transform="translate(737 426)"/><path d="M10,0,20,61H0Z" transform="translate(737 405) rotate(90)"/><path d="M10,0,20,61H0Z" transform="translate(742.728 430.224) rotate(-30)"/><path d="M10,0,20,61H0Z" transform="translate(732.728 411.728) rotate(60)"/><path d="M10,0,20,61H0Z" transform="translate(750.496 429.048) rotate(-60)"/><path d="M10,0,20,61H0Z" transform="translate(750.496 401.728) rotate(150)"/><path d="M10,0,20,61H0Z" transform="translate(742.728 402.904) rotate(120)"/><path d="M10,0,20,61H0Z" transform="translate(760.496 420.224) rotate(-120)"/><path d="M10,0,20,61H0Z" transform="translate(760.048 411.728) rotate(-150)"/><path d="M10,0,20,61H0Z" transform="translate(733.176 420.224) rotate(30)"/><path d="M188.5,2.5H0A2.5,2.5,0,0,1-2.5,0,2.5,2.5,0,0,1,0-2.5H188.5A2.5,2.5,0,0,1,191,0,2.5,2.5,0,0,1,188.5,2.5Z" transform="translate(745 292.5)"/><path d="M65,2.5H0A2.5,2.5,0,0,1-2.5,0,2.5,2.5,0,0,1,0-2.5H65A2.5,2.5,0,0,1,67.5,0,2.5,2.5,0,0,1,65,2.5Z" transform="translate(868 396.314)"/><circle cx="7.5" cy="7.5" r="7.5" transform="translate(740 311)"/><circle cx="7.5" cy="7.5" r="7.5" transform="translate(743 501)"/><circle cx="7.5" cy="7.5" r="7.5" transform="translate(836 408)"/><circle cx="7.5" cy="7.5" r="7.5" transform="translate(643 408)"/><circle cx="7.5" cy="7.5" r="7.5" transform="translate(669 341)"/><circle cx="7.5" cy="7.5" r="7.5" transform="translate(811 476)"/><circle cx="7.5" cy="7.5" r="7.5" transform="translate(672 480)"/><circle cx="7.5" cy="7.5" r="7.5" transform="translate(815 341)"/><text transform="translate(864 360)" font-size="46" font-family="Ubuntu-Regular, Ubuntu"><tspan x="0" y="0">TURBO</tspan></text></g></svg>